<svg width="1300" height="1161" viewBox="0 0 1300 1161" fill="none" xmlns="http://www.w3.org/2000/svg">
<path opacity="0.5" d="M277.743 86.6942C173.102 187.217 156.886 377.298 86.0156 517.527C61.345 566.322 29.4674 609.992 12.8356 664.123C-25.3482 788.026 27.2036 928.572 97.5423 1026.98C131.083 1073.93 170.26 1116.94 217.661 1136.72C254.112 1151.94 293.197 1152.57 331.566 1152.97L1003.77 1160.9C1078.82 1161.77 1162.21 1158.62 1216.17 1092.21C1253.36 1046.48 1268.47 979.692 1281.29 915.944C1297.04 837.613 1311.32 752.546 1286.81 677.94C1258.81 592.582 1188.01 544.21 1144.03 470.555C1072.65 351.223 1074.29 170.731 983.394 75.4664C940.96 31.0041 884.966 13.5679 830.404 4.84978C727.541 -11.6089 630.107 19.4592 529.091 15.1266C442.745 11.428 349.376 17.8741 277.743 86.6942Z" fill="#E7ECFF"/>
</svg>
